HIERARCHY
ROOT pelvis
{
  OFFSET 0 100 0
  CHANNELS 6 Xposition Yposition Zposition Zrotation Xrotation Yrotation
  JOINT pelvis_right_femur
  {
    OFFSET -10.78128 -3.44521 -0.5502486
    CHANNELS 3 Zrotation Xrotation Yrotation
    JOINT right_femur_tibia
    {
      OFFSET -0.8047443 -44.0398 -0.1307829
      CHANNELS 3 Zrotation Xrotation Yrotation
      JOINT right_tibia_foot
      {
        OFFSET 3.006224 -47.83518 -5
        CHANNELS 3 Zrotation Xrotation Yrotation
        End Site
        {
          OFFSET 0 -5 15
        }
      }
    }
  }
  JOINT pelvis_left_femur
  {
    OFFSET 10.78128 -3.44521 -0.5502486
    CHANNELS 3 Zrotation Xrotation Yrotation
    JOINT left_femur_tibia
    {
      OFFSET 0.8047443 -44.0398 -0.1307829
      CHANNELS 3 Zrotation Xrotation Yrotation
      JOINT left_tibia_foot
      {
        OFFSET -4.370144 -48.10324 -4.275266
        CHANNELS 3 Zrotation Xrotation Yrotation
        End Site
        {
          OFFSET 0 -5 15
        }
      }
    }
  }
  JOINT pelvis_spine1
  {
    OFFSET 0 6.468898 -3.129235
    CHANNELS 3 Zrotation Xrotation Yrotation
    JOINT spine1
    {
      OFFSET 0 23.15396 4.99043
      CHANNELS 3 Zrotation Xrotation Yrotation
      JOINT spine2
      {
        OFFSET 0 20.79997 -5.064912
        CHANNELS 3 Zrotation Xrotation Yrotation
        JOINT neck
        {
          OFFSET 0 14.38658 9.616178
          CHANNELS 3 Zrotation Xrotation Yrotation
          End Site
          {
            OFFSET 0 20 0
          }
        }
      }
      JOINT right_manubrium
      {
        OFFSET -5.722621 16.35077 3.967754
        CHANNELS 3 Zrotation Xrotation Yrotation
        JOINT right_clavicle
        {
          OFFSET -13.16364 1.694482 -4.693211
          CHANNELS 3 Zrotation Xrotation Yrotation
          JOINT right_humerus
          {
            OFFSET -28.5034 -0.3100689 -2.792744
            CHANNELS 3 Zrotation Xrotation Yrotation
            JOINT right_radius
            {
              OFFSET -25.15693 0.02248979 -1.271978
              CHANNELS 3 Zrotation Xrotation Yrotation
              End Site
              {
                OFFSET -15 0 0
              }
            }
          }
        }
      }
      JOINT left_manubrium
      {
        OFFSET 5.722621 16.35077 3.967754
        CHANNELS 3 Zrotation Xrotation Yrotation
        JOINT left_clavicle
        {
          OFFSET 13.16364 1.694482 -4.693211
          CHANNELS 3 Zrotation Xrotation Yrotation
          JOINT left_humerus
          {
            OFFSET 29.39168 -1.063119 -2.237045
            CHANNELS 3 Zrotation Xrotation Yrotation
            JOINT left_radius
            {
              OFFSET 24.59957 -0.9528479 0.9047498
              CHANNELS 3 Zrotation Xrotation Yrotation
              End Site
              {
                OFFSET 15 -0 -0
              }
            }
          }
        }
      }
    }
  }
}
MOTION
Frames: 17
Frame Time: 0.0416666666667
30.33699 102.003 242.4303 1.906822 -8.5393 -4.27824 0.164484 23.01029 8.566942 -0 9.037998 -0 6.219851 -15.31128 1.594718 1.462009 -27.40191 -3.766463 -0 29.36468 -0 -8.838653 -5.644781 20.11487 -0.8633777 -0.2359284 10.06243 -1.988199 10.14784 -1.849957 2.273629 21.61228 5.183537 1.842888 -14.70128 6.89174 1.238401 -22.06006 11.82503 80.01129 21.99783 -5.656019 -0 0 26.98755 -26.40375 14.29247 13.5767 5.079959 -14.67529 -2.811635 -93.89635 21.77505 25.44721 0 0 -12.2696 -3.971142 6.511536 16.35856
31.07457 100.994 249.0446 1.835166 -8.238526 -4.707596 -0.5215296 24.39904 8.574137 -0 13.23244 -0 7.099025 -15.0141 1.879247 0.655653 -27.80475 -4.683008 -0 25.3498 -0 -8.688401 -5.956779 19.60945 -0.9154852 -0.4276542 9.956976 -2.286665 9.562624 -1.782822 2.406793 21.46642 5.136313 1.671448 -14.86159 7.138583 0.89652 -22.31929 11.47007 79.70946 21.44456 -4.528154 -0 0 28.12877 -26.59894 13.99013 13.89629 4.812048 -13.71358 -2.815048 -94.1977 22.01792 26.39165 0 0 -10.58835 -4.352655 6.423767 17.0251
31.89155 100.2938 256.1309 1.994863 -7.927928 -5.072339 -1.548412 25.11457 8.470147 -0 18.64725 -0 7.902218 -13.45721 1.741077 -0.8451008 -26.38113 -5.995422 -0 24.06807 -0 -8.575684 -6.019858 19.04694 -1.223178 -1.06726 9.931482 -2.463724 9.078746 -1.781703 2.572536 21.45099 5.093281 1.53841 -14.91987 7.408873 0.7788395 -22.04694 11.02503 79.88087 21.099 -4.29325 -0 0 28.27293 -26.61441 13.77164 13.98567 4.5442 -12.87085 -2.852014 -94.27373 22.3278 26.81376 0 0 -9.234628 -4.661283 6.39351 17.61307
32.71042 100.1379 263.5393 2.309649 -7.848088 -5.242232 -2.711805 24.83824 8.074896 -0 25.47039 -0 8.491073 -11.09086 1.010097 -2.528789 -23.55484 -7.327683 -0 24.43856 -0 -8.459881 -6.116641 18.53934 -1.729571 -1.809453 9.877516 -2.531254 8.753957 -1.781125 2.725078 21.59491 5.058105 1.414177 -14.86822 7.676132 0.9309169 -21.27709 10.60653 80.49065 21.00657 -4.894473 -0 0 27.32903 -26.40717 13.66231 13.7913 4.336136 -12.32138 -2.905414 -93.96519 22.71983 26.53455 0 0 -8.442101 -4.819882 6.452644 17.98816
33.46256 100.6402 270.9301 2.643137 -8.156281 -4.966519 -3.595478 23.08143 7.285853 -0 33.63803 -0 8.746902 -8.685732 -0.3371824 -4.141267 -19.65171 -8.449087 -0 25.23702 -0 -8.22122 -6.696099 18.03718 -2.275136 -2.221003 9.582273 -2.516032 8.618027 -1.819239 2.811941 21.89821 5.046129 1.260151 -14.72215 7.925642 1.348389 -20.1789 10.32017 81.46392 21.1796 -6.139058 -0 0 25.41295 -25.95012 13.66662 13.31416 4.171208 -12.22735 -3.002936 -93.1225 23.20304 25.3922 0 0 -8.326372 -4.761096 6.622016 18.05745
34.16929 101.6892 278.0103 2.90624 -8.792914 -4.173802 -3.796105 19.31813 6.22172 -0 42.36433 -0 8.588762 -6.986606 -2.116833 -5.492889 -14.62272 -9.280241 -0 25.67179 -0 -7.817284 -7.907029 17.47415 -2.668936 -2.092978 8.861774 -2.458065 8.63661 -1.996217 2.774825 22.34252 5.096298 1.038779 -14.47753 8.162026 1.924771 -18.99039 10.18728 82.71048 21.58535 -7.751952 -0 0 22.90911 -25.2593 13.76029 12.65086 4.007731 -12.62311 -3.173144 -91.73181 23.74214 23.34347 0 0 -8.86293 -4.45545 6.900054 17.80573
34.79255 103.1342 284.5728 2.932681 -9.53797 -3.161493 -3.413861 13.65344 5.045824 -0 49.42858 -0 8.062434 -6.389612 -3.86585 -6.295561 -8.893571 -9.786903 -0 25.15515 -0 -7.420843 -9.33211 16.87255 -2.808459 -1.501662 7.744738 -2.303726 8.684653 -2.363229 2.620585 22.87605 5.224807 0.7559467 -14.13088 8.407062 2.483193 -17.9102 10.16656 84.1152 22.13355 -9.473046 -0 0 20.3303 -24.40475 13.89723 11.94865 3.903956 -13.39377 -3.444186 -89.9289 24.26553 20.49692 0 0 -9.972797 -3.923553 7.272378 17.27429
35.33125 104.7329 290.603 2.761537 -10.09091 -2.072985 -2.728637 6.825868 3.974719 -0 53.02205 -0 7.246982 -6.498051 -5.25996 -6.559284 -3.034291 -10.08554 -0 23.59776 -0 -7.163336 -10.65335 16.19973 -2.747421 -0.7833549 6.352528 -2.034738 8.653464 -2.983873 2.458842 23.41659 5.387776 0.4709497 -13.73093 8.69081 2.772471 -16.89541 10.0831 85.65525 22.69094 -11.25237 -0 0 18.06979 -23.47165 14.00073 11.31531 3.957702 -14.34612 -3.778526 -87.9356 24.69767 17.08402 0 0 -11.59441 -3.229458 7.721368 16.50915
35.81967 106.1448 296.2141 2.538389 -10.21563 -0.8755811 -2.061748 -0.2462869 3.138894 -0 52.32678 -0 6.239129 -6.718112 -6.236877 -6.448086 2.477286 -10.31647 -0 21.25517 -0 -7.058694 -11.84218 15.4091 -2.622343 -0.2344798 4.874004 -1.669028 8.474334 -3.857297 2.401323 23.88025 5.510336 0.2469561 -13.33384 9.001761 2.637503 -15.86925 9.796448 87.24344 23.14106 -13.09375 -0 0 16.27869 -22.54071 14.00606 10.78547 4.233594 -15.33967 -4.110706 -85.92634 25.00276 13.35068 0 0 -13.66155 -2.442213 8.232621 15.53456
36.23386 107.0255 301.5614 2.381149 -9.86092 0.3757718 -1.737723 -6.808399 2.538951 -0 47.51998 -0 5.105645 -6.745832 -6.946809 -6.156033 7.366572 -10.55265 -0 18.60347 -0 -7.029136 -13.08432 14.50546 -2.581271 0.05022607 3.532251 -1.243102 8.129259 -4.873962 2.497767 24.20267 5.516904 0.1203905 -12.9824 9.2715 2.10992 -14.83006 9.309729 88.68107 23.434 -14.95503 -0 0 14.84689 -21.66744 13.88912 10.3136 4.73154 -16.33734 -4.38494 -83.97127 25.1862 9.497414 0 0 -16.07322 -1.605614 8.799851 14.35778
36.56929 107.2072 306.9567 2.391409 -9.210765 1.625137 -1.863149 -12.5175 2.150987 -0 39.61241 -0 3.842041 -6.73508 -7.540199 -5.900241 11.66283 -10.75755 -0 16.31062 -0 -7.007652 -14.49778 13.5741 -2.725308 0.1185151 2.45691 -0.8171964 7.681372 -5.865668 2.738879 24.36075 5.362945 0.09608342 -12.73832 9.428422 1.366914 -13.7328 8.752183 89.8804 23.5921 -16.81274 -0 0 13.49874 -20.83843 13.67327 9.793879 5.393469 -17.34875 -4.561428 -82.10824 25.26285 5.700214 0 0 -18.67606 -0.7186335 9.426697 13.01345
36.82814 106.6897 312.4929 2.574708 -8.436637 2.707886 -2.309694 -17.17643 1.773415 -0 30.12771 -0 2.451407 -6.96206 -8.080257 -5.807542 15.39478 -10.84962 -0 14.8441 -0 -6.987998 -16.03978 12.69798 -3.009559 0.07304722 1.759577 -0.4440358 7.204273 -6.602387 3.047562 24.37981 5.088191 0.1409545 -12.63124 9.455607 0.6459743 -12.58758 8.304949 90.85625 23.68052 -18.59712 -0 0 11.98553 -19.9828 13.40687 9.127928 6.101013 -18.38362 -4.597481 -80.41354 25.2381 2.131852 0 0 -21.26835 0.2237626 10.09414 11.57585
36.98682 105.6321 318.1235 2.815558 -7.684221 3.417175 -2.70503 -20.70688 1.246837 -0 20.83043 -0 0.9745667 -7.583413 -8.576718 -5.853902 18.55741 -10.79241 -0 14.48506 -0 -7.015861 -17.50209 11.95295 -3.303631 0.03390453 1.439297 -0.1352662 6.75823 -6.963541 3.338979 24.32799 4.763628 0.2142715 -12.65023 9.373874 0.1406502 -11.49272 8.08326 91.63588 23.76524 -20.1862 -0 0 10.2219 -19.04356 13.13373 8.28815 6.723844 -19.41649 -4.484455 -78.97489 25.1298 -1.006796 0 0 -23.59279 1.195556 10.76344 10.14561
37.00086 104.3294 323.9256 2.928742 -7.099012 3.726032 -2.582942 -23.09723 0.6821725 -0 13.61191 -0 -0.5003871 -8.465765 -9.017988 -5.842888 21.15055 -10.64839 -0 15.45983 -0 -7.165824 -18.52833 11.41024 -3.454281 0.06172184 1.348557 0.1357625 6.388766 -7.001447 3.568441 24.28669 4.443867 0.2915745 -12.76581 9.220458 -0.05552457 -10.55794 8.089846 92.25022 23.88408 -21.45676 -0 0 8.306564 -18.00519 12.88068 7.326917 7.150165 -20.34548 -4.261868 -77.8976 24.98625 -3.470425 0 0 -25.34956 2.131734 11.39177 8.839992
36.83166 103.0878 330.0974 2.777635 -6.793733 3.996722 -1.819785 -24.23311 0.5795504 -0 10.14227 -0 -1.846714 -9.048693 -9.370998 -5.462332 23.19217 -10.57028 -0 18.06322 -0 -7.498156 -18.67991 11.13109 -3.343473 0.01319509 1.257929 0.3973342 6.134943 -6.888852 3.757711 24.29599 4.135203 0.3789529 -12.96239 9.026555 0.002615619 -9.753925 8.219751 92.78682 24.01785 -22.37811 -0 0 6.466366 -16.89343 12.64931 6.34858 7.321492 -20.94596 -3.993191 -77.35537 24.90014 -4.983471 0 0 -26.26334 2.945018 11.95506 7.777767
36.49881 102.1707 336.751 2.340193 -6.732991 4.413478 -0.5134477 -23.8601 1.280453 -0 10.51025 -0 -3.00657 -8.959957 -9.488267 -4.627944 24.47786 -10.59749 -0 22.51199 -0 -7.973726 -17.63605 11.23241 -2.934867 -0.2551254 0.9912345 0.6288084 6.04326 -6.81963 3.904496 24.41434 3.819381 0.4773047 -13.16009 8.766062 0.1494331 -9.123754 8.321121 93.20423 24.14405 -22.86247 -0 0 5.000798 -15.82128 12.40819 5.505378 7.28632 -21.02683 -3.702044 -77.49605 24.96539 -5.316286 0 0 -26.13886 3.545452 12.4509 7.063444
36.07272 101.7771 343.8239 1.732784 -6.999402 4.703742 1.010509 -21.92257 2.533552 -0 13.23704 -0 -4.035905 -8.513184 -9.346114 -3.567165 24.53909 -10.63828 -0 28.8966 -0 -8.411468 -15.55765 11.8944 -2.319384 -0.6344981 0.6872193 0.791727 6.161231 -6.781038 3.99534 24.67289 3.504397 0.5793492 -13.30551 8.438909 0.2941349 -8.77816 8.377565 93.36426 24.26994 -22.79246 -0 0 4.117156 -14.90722 12.12915 4.911323 7.070729 -20.57588 -3.415264 -78.35429 25.20979 -4.426211 0 0 -24.91582 3.862649 12.88585 6.750694
